HIERARCHY
ROOT Hips
{
	OFFSET 0.00000 0.00000 0.00000
	CHANNELS 6 Xposition Yposition Zposition Zrotation Yrotation Xrotation 
	JOINT LHipJoint
	{
		OFFSET 0 0 0
		CHANNELS 3 Zrotation Yrotation Xrotation
		JOINT LeftUpLeg
		{
			OFFSET 1.26600 -1.82114 0.91038
			CHANNELS 3 Zrotation Yrotation Xrotation
			JOINT LeftLeg
			{
				OFFSET 2.50076 -6.87080 0.00000
				CHANNELS 3 Zrotation Yrotation Xrotation
				JOINT LeftFoot
				{
					OFFSET 2.57364 -7.07102 0.00000
					CHANNELS 3 Zrotation Yrotation Xrotation
					JOINT LeftToeBase
					{
						OFFSET 0.13572 -0.37290 1.97004
						CHANNELS 3 Zrotation Yrotation Xrotation
						End Site
						{
							OFFSET 0.00000 -0.00000 1.01383
						}
					}
				}
			}
		}
	}
	JOINT RHipJoint
	{
		OFFSET 0 0 0
		CHANNELS 3 Zrotation Yrotation Xrotation
		JOINT RightUpLeg
		{
			OFFSET -1.20803 -1.82114 0.91038
			CHANNELS 3 Zrotation Yrotation Xrotation
			JOINT RightLeg
			{
				OFFSET -2.54916 -7.00377 0.00000
				CHANNELS 3 Zrotation Yrotation Xrotation
				JOINT RightFoot
				{
					OFFSET -2.56374 -7.04382 0.00000
					CHANNELS 3 Zrotation Yrotation Xrotation
					JOINT RightToeBase
					{
						OFFSET -0.23520 -0.64621 2.09921
						CHANNELS 3 Zrotation Yrotation Xrotation
						End Site
						{
							OFFSET -0.00000 -0.00000 1.10065
						}
					}
				}
			}
		}
	}
	JOINT LowerBack
	{
		OFFSET 0 0 0
		CHANNELS 3 Zrotation Yrotation Xrotation
		JOINT Spine
		{
			OFFSET 0.05492 2.10797 -0.12074
			CHANNELS 3 Zrotation Yrotation Xrotation
			JOINT Spine1
			{
				OFFSET 0.04577 2.11592 -0.04483
				CHANNELS 3 Zrotation Yrotation Xrotation
				JOINT Neck
				{
					OFFSET 0 0 0
					CHANNELS 3 Zrotation Yrotation Xrotation
					JOINT Neck1
					{
						OFFSET -0.10759 1.80167 0.15770
						CHANNELS 3 Zrotation Yrotation Xrotation
						JOINT Head
						{
							OFFSET 0.09237 1.77509 -0.40848
							CHANNELS 3 Zrotation Yrotation Xrotation
							End Site
							{
								OFFSET 0.03805 1.84093 -0.15754
							}
						}
					}
				}
				JOINT LeftShoulder
				{
					OFFSET 0 0 0
					CHANNELS 3 Zrotation Yrotation Xrotation
					JOINT LeftArm
					{
						OFFSET 3.42372 1.09575 -0.28209
						CHANNELS 3 Zrotation Yrotation Xrotation
						JOINT LeftForeArm
						{
							OFFSET 4.95681 -0.00000 0.00000
							CHANNELS 3 Zrotation Yrotation Xrotation
							JOINT LeftHand
							{
								OFFSET 3.40915 -0.00000 0.00000
								CHANNELS 3 Zrotation Yrotation Xrotation
								JOINT LeftFingerBase
								{
									OFFSET 0 0 0
									CHANNELS 3 Zrotation Yrotation Xrotation
									JOINT LeftHandIndex1
									{
										OFFSET 0.61640 -0.00000 0.00000
										CHANNELS 3 Zrotation Yrotation Xrotation
										End Site
										{
											OFFSET 0.49696 -0.00000 0.00000
										}
									}
								}
								JOINT LThumb
								{
									OFFSET 0 0 0
									CHANNELS 3 Zrotation Yrotation Xrotation
									End Site
									{
										OFFSET 0.50455 -0.00000 0.50455
									}
								}
							}
						}
					}
				}
				JOINT RightShoulder
				{
					OFFSET 0 0 0
					CHANNELS 3 Zrotation Yrotation Xrotation
					JOINT RightArm
					{
						OFFSET -3.24731 1.15872 -0.32221
						CHANNELS 3 Zrotation Yrotation Xrotation
						JOINT RightForeArm
						{
							OFFSET -5.35200 -0.00000 0.00000
							CHANNELS 3 Zrotation Yrotation Xrotation
							JOINT RightHand
							{
								OFFSET -3.43721 -0.00000 -0.00000
								CHANNELS 3 Zrotation Yrotation Xrotation
								JOINT RightFingerBase
								{
									OFFSET 0 0 0
									CHANNELS 3 Zrotation Yrotation Xrotation
									JOINT RightHandIndex1
									{
										OFFSET -0.72009 -0.00000 0.00000
										CHANNELS 3 Zrotation Yrotation Xrotation
										End Site
										{
											OFFSET -0.58056 -0.00000 0.00000
										}
									}
								}
								JOINT RThumb
								{
									OFFSET 0 0 0
									CHANNELS 3 Zrotation Yrotation Xrotation
									End Site
									{
										OFFSET -0.58942 -0.00000 0.58942
									}
								}
							}
						}
					}
				}
			}
		}
	}
}
MOTION
Frames: 10
Frame Time: .0083333
10.5204 17.3871 -21.9527 -511.9560 88.4380 928.9950 0.0000 0.0000 0.0000 -23.4411 1.7939 0.1325 0.8827 5.9892 16.7531 -0.1136 -15.2661 -9.4340 1.0966 6.6544 18.6955 0.0000 0.0000 0.0000 17.9044 2.8456 -33.3790 -6.7176 -15.0894 47.7979 -0.7162 0.1994 -15.9276 -0.2815 -3.4123 9.4288 -0.7796 -0.0303 3.6761 2.9511 0.0026 2.5624 3.4728 -0.0016 0.5709 -8.3031 -2.2896 -15.1188 1.3740 -0.2417 33.1517 2.0468 -0.6064 13.8548 0.0000 -0.0000 0.0000 -88.5698 6.2368 25.0654 17.2267 -27.1557 -4.1903 -0.0000 0.0000 -2.9850 18.2248 21.0635 6.7489 -7.1250 0.0000 -0.0000 -10.5960 51.7459 -1.7768 0.0000 -0.0000 0.0000 87.3304 -3.2383 4.2511 -12.5796 20.6682 -2.3028 0.0000 -0.0000 -5.3608 -20.7791 12.2601 -4.6067 7.1250 -0.0000 -0.0000 4.4793 -16.9206 2.9909
10.5786 17.3891 -21.9517 -497.1380 88.1668 943.7370 0.0000 0.0000 0.0000 -22.8711 1.7939 0.6457 0.8488 5.8760 16.4251 -0.0628 -14.9298 -9.7685 0.8827 5.9893 16.7533 0.0000 0.0000 0.0000 18.9319 2.3146 -33.6755 -6.2008 -14.6201 45.7823 -0.6122 -1.0992 -15.2189 -0.0009 -0.1923 0.5283 -0.1911 0.1376 3.7544 2.9805 0.2476 2.6902 3.1632 0.1294 0.6437 -8.2240 -2.4456 -15.1444 1.5489 -0.5723 32.9958 2.0467 -0.7168 13.8084 -0.0000 0.0000 0.0000 -88.1368 6.1246 26.0133 17.3499 -27.3168 -4.2467 -0.0000 0.0000 -3.2390 18.1582 20.8245 6.6505 -7.1250 0.0000 -0.0000 -10.5737 51.4923 -1.7068 -0.0000 0.0000 0.0000 87.4257 -2.9690 4.2757 -12.1035 19.9597 -2.1375 0.0000 -0.0000 -5.7942 -21.4931 12.9064 -5.0264 7.1250 -0.0000 -0.0000 4.0078 -16.1669 2.7402
10.6381 17.3899 -21.9596 -484.4390 87.6442 956.3040 0.0000 0.0000 0.0000 -22.0531 2.1048 1.2365 0.7935 5.6861 15.8764 -0.1077 -15.1399 -9.4039 0.8073 5.7342 16.0152 0.0000 0.0000 0.0000 19.7646 2.3462 -33.4449 -5.7056 -14.1368 43.7883 -0.5865 -1.0502 -14.8839 -0.0026 -0.3314 0.9106 0.5565 0.0847 3.8448 3.1498 0.2074 2.7897 2.9182 0.1214 0.6991 -8.2923 -2.4256 -15.1022 1.6739 -0.5760 32.9309 2.1065 -0.7102 13.7706 -0.0000 -0.0000 0.0000 -88.0277 6.1835 26.2852 17.5032 -27.5163 -4.3172 -0.0000 0.0000 -3.3772 18.2141 20.8339 6.6751 -7.1250 0.0000 -0.0000 -10.5222 51.5113 -1.7032 -0.0000 -0.0000 0.0000 87.3936 -3.1194 5.1230 -12.0641 19.9007 -2.1241 0.0000 -0.0000 -6.6683 -21.8330 13.0647 -5.1749 7.1250 -0.0000 -0.0000 3.7799 -15.9644 2.6002
10.6885 17.3902 -22.0069 -493.4960 87.9016 947.4530 0.0000 0.0000 0.0000 -22.6481 2.2455 1.4912 0.7404 5.4967 15.3308 -0.1501 -15.3319 -9.0523 0.9004 6.0475 16.9224 0.0000 0.0000 0.0000 19.2999 1.6906 -33.8709 -5.2394 -13.6484 41.8470 -0.5283 -0.5690 -13.9483 -0.0107 -0.6674 1.8339 0.5218 -0.1527 3.7483 3.0609 -0.1147 2.7838 2.8559 -0.0411 0.7619 -8.5355 -2.3121 -15.3305 1.6603 -0.3086 33.0055 2.1874 -0.6311 13.8414 0.0000 0.0000 0.0000 -88.2863 6.2166 26.1299 17.6008 -27.6430 -4.3624 -0.0000 0.0000 -3.4880 17.8956 20.8920 6.5687 -7.1250 0.0000 -0.0000 -10.8561 51.5162 -1.7597 0.0000 0.0000 0.0000 87.4118 -3.4146 5.0916 -12.5955 20.6917 -2.3084 0.0000 -0.0000 -6.3511 -21.2629 12.2116 -4.7055 7.1250 -0.0000 -0.0000 4.1411 -16.9274 2.7632
10.7627 17.3931 -21.9521 -527.5370 88.5139 913.7360 0.0000 0.0000 0.0000 -23.8295 2.5172 1.6136 0.6780 5.2651 14.6662 -0.1809 -15.4518 -8.7804 0.9819 6.3075 17.6793 0.0000 0.0000 0.0000 18.0806 2.0485 -34.0565 -4.8128 -13.1698 40.0076 -0.4760 -0.7887 -13.3423 -0.0451 -1.3702 3.7681 -1.6100 -0.0958 3.3103 2.9733 -0.1097 2.8816 3.9691 -0.0794 1.1154 -8.7162 -2.3500 -15.6893 1.7880 -0.3362 32.9499 2.2638 -0.6547 13.8996 0.0000 0.0000 0.0000 -88.2702 5.9053 26.3427 17.5690 -27.6018 -4.3477 -0.0000 0.0000 -3.1980 17.3229 20.7353 6.3016 -7.1250 0.0000 -0.0000 -11.3583 51.2619 -1.7714 0.0000 0.0000 0.0000 87.3790 -3.3156 4.8561 -12.8027 20.9974 -2.3821 0.0000 -0.0000 -6.1383 -20.2912 11.4696 -4.2049 7.1250 -0.0000 -0.0000 4.7978 -17.7991 3.1125
10.8275 17.3967 -21.9436 -512.4840 88.4660 928.7220 0.0000 0.0000 0.0000 -23.2911 3.0593 2.1897 0.6067 4.9856 13.8675 -0.2133 -15.5237 -8.4428 0.9728 6.2791 17.5963 0.0000 0.0000 0.0000 18.6237 2.1534 -33.7961 -4.3927 -12.6654 38.1286 -0.4350 -0.7633 -12.7578 -0.0991 -2.0305 5.5899 -1.4246 -0.0865 3.3429 3.1649 -0.0888 2.9889 4.0632 -0.0674 1.2062 -8.9286 -2.3830 -15.7524 1.9194 -0.3690 32.8637 2.3458 -0.6789 13.8800 0.0000 -0.0000 0.0000 -88.4560 5.7890 25.8088 17.6399 -27.6936 -4.3806 -0.0000 0.0000 -2.2697 17.1120 20.7248 6.2178 -7.1250 0.0000 -0.0000 -11.5601 51.2161 -1.7904 0.0000 -0.0000 0.0000 86.8501 -3.3864 6.9545 -12.6630 20.7914 -2.3323 0.0000 -0.0000 -8.1713 -20.1849 11.2848 -4.1148 7.1250 -0.0000 -0.0000 4.8681 -18.0031 3.1366
10.8879 17.4020 -21.9578 -508.9630 88.3240 932.3230 0.0000 0.0000 0.0000 -23.0941 3.3868 2.6005 0.5508 4.7545 13.2096 -0.2451 -15.6334 -8.1421 0.9447 6.1905 17.3380 0.0000 0.0000 0.0000 18.8671 1.9668 -33.8156 -3.9689 -12.1190 36.1541 -0.3804 -0.7362 -11.9399 -0.1018 -2.0571 5.6634 -1.2024 -0.2642 3.2829 3.2645 -0.3195 2.9376 4.0456 -0.1790 1.2047 -9.0466 -2.3258 -15.6141 1.8110 -0.2156 32.9042 2.3481 -0.6404 13.8605 0.0000 0.0000 0.0000 -88.7681 5.9849 25.0845 17.7655 -27.8558 -4.4391 -0.0000 0.0000 -1.8647 17.3761 20.8206 6.3467 -7.1250 0.0000 -0.0000 -11.3382 51.3567 -1.7947 0.0000 0.0000 0.0000 86.4588 -3.5277 8.5818 -12.4347 20.4533 -2.2519 0.0000 -0.0000 -9.4552 -20.4013 11.4647 -4.2279 7.1250 -0.0000 -0.0000 4.7205 -17.7952 3.0625
10.9507 17.4015 -21.9587 -511.3470 88.2690 930.0020 0.0000 0.0000 0.0000 -23.0840 3.5212 2.8500 0.5331 4.6785 12.9938 -0.2738 -15.7499 -7.8850 0.9919 6.3387 17.7704 0.0000 0.0000 0.0000 18.8679 2.0723 -33.6389 -3.5235 -11.4978 33.9778 -0.3224 -0.9268 -11.1019 -0.0323 -1.1599 3.1889 -1.3050 -0.4204 3.2330 3.2788 -0.5308 2.9259 4.1228 -0.2874 1.2389 -8.9862 -2.2457 -15.5925 1.7113 -0.0796 32.9604 2.3207 -0.5882 13.8715 -0.0000 0.0000 0.0000 -88.6877 5.9277 25.2263 17.6061 -27.6498 -4.3649 -0.0000 0.0000 -2.2393 17.5882 20.6230 6.3707 -7.1250 0.0000 -0.0000 -11.0578 51.1927 -1.7046 -0.0000 0.0000 0.0000 86.7003 -3.3485 7.2332 -12.2617 20.1959 -2.1918 0.0000 -0.0000 -7.8614 -20.2998 11.4492 -4.1995 7.1250 -0.0000 -0.0000 4.7913 -17.8200 3.1061
11.0229 17.3937 -21.9431 -502.9440 88.1239 938.2940 0.0000 0.0000 0.0000 -22.6267 3.7841 3.3962 0.5001 4.5337 12.5832 -0.3014 -15.7455 -7.5204 1.0439 6.4975 18.2349 0.0000 0.0000 0.0000 19.1893 2.6072 -33.0524 -3.1260 -10.8962 31.9307 -0.2869 -1.2458 -10.6495 -0.0091 -0.6171 1.6957 -1.1928 -0.5068 3.2402 3.3529 -0.6419 2.9956 4.1384 -0.3422 1.3154 -9.0033 -2.1729 -15.5028 1.8006 -0.0125 32.9141 2.3690 -0.5486 13.8251 0.0000 0.0000 0.0000 -88.5937 5.6423 25.0782 17.2300 -27.1600 -4.1918 -0.0000 0.0000 -2.2025 17.6770 20.1615 6.2685 -7.1250 0.0000 -0.0000 -10.8050 50.7410 -1.5440 0.0000 0.0000 0.0000 86.9300 -3.0913 5.8576 -12.0597 19.8941 -2.1226 0.0000 -0.0000 -6.5140 -20.4762 11.2291 -4.1590 7.1250 -0.0000 -0.0000 4.6622 -18.0380 2.9994
11.0944 17.3898 -21.9298 -490.9140 87.7159 950.1960 0.0000 0.0000 0.0000 -21.8510 4.1058 3.8842 0.4752 4.4209 12.2639 -0.3103 -15.7892 -7.4459 0.9341 6.1563 17.2387 0.0000 0.0000 0.0000 19.9520 2.7361 -32.4479 -2.7460 -10.2720 29.8621 -0.2643 -1.2073 -10.2271 -0.0001 -0.0485 0.1334 -0.7638 -0.6010 3.2958 3.5258 -0.7530 3.0397 4.0778 -0.3897 1.3350 -8.9306 -2.0648 -15.2457 1.7602 0.1021 32.7576 2.3537 -0.4909 13.6907 -0.0000 0.0000 0.0000 -88.6588 5.8472 24.5739 17.4816 -27.4882 -4.3073 -0.0000 0.0000 -1.9580 17.6017 20.2872 6.2773 -7.1250 0.0000 -0.0000 -10.9230 50.8558 -1.5923 -0.0000 0.0000 0.0000 86.9959 -2.7214 5.1220 -11.6051 19.2097 -1.9704 0.0000 -0.0000 -5.5510 -20.6840 11.5464 -4.3217 7.1250 -0.0000 -0.0000 4.5245 -17.6847 2.9455
